<svg width="26" height="26" viewBox="0 0 26 26" fill="none" xmlns="http://www.w3.org/2000/svg">
<path d="M18.4166 6.49996H22.8333C23.3856 6.49996 23.8333 6.94767 23.8333 7.49996V7.66663C23.8333 8.21891 23.3856 8.66663 22.8333 8.66663H21.6666V22.75C21.6666 23.0373 21.5525 23.3128 21.3493 23.516C21.1462 23.7192 20.8706 23.8333 20.5833 23.8333H5.41663C5.12931 23.8333 4.85376 23.7192 4.65059 23.516C4.44743 23.3128 4.33329 23.0373 4.33329 22.75V8.66663H3.16663C2.61434 8.66663 2.16663 8.21891 2.16663 7.66663V7.49996C2.16663 6.94767 2.61434 6.49996 3.16663 6.49996H7.58329V3.24996C7.58329 2.96264 7.69743 2.68709 7.90059 2.48393C8.10376 2.28076 8.37931 2.16663 8.66663 2.16663H17.3333C17.6206 2.16663 17.8962 2.28076 18.0993 2.48393C18.3025 2.68709 18.4166 2.96264 18.4166 3.24996V6.49996ZM19.5 8.66663H6.49996V21.6666H19.5V8.66663ZM9.74996 12.9166C9.74996 12.3643 10.1977 11.9166 10.75 11.9166H10.9166C11.4689 11.9166 11.9166 12.3643 11.9166 12.9166V17.4166C11.9166 17.9689 11.4689 18.4166 10.9166 18.4166H10.75C10.1977 18.4166 9.74996 17.9689 9.74996 17.4166V12.9166ZM14.0833 12.9166C14.0833 12.3643 14.531 11.9166 15.0833 11.9166H15.25C15.8022 11.9166 16.25 12.3643 16.25 12.9166V17.4166C16.25 17.9689 15.8022 18.4166 15.25 18.4166H15.0833C14.531 18.4166 14.0833 17.9689 14.0833 17.4166V12.9166ZM9.74996 4.33329V6.49996H16.25V4.33329H9.74996Z" fill="#C91E1E"/>
</svg>
