<svg width="20" height="20" viewBox="0 0 20 20" fill="none" xmlns="http://www.w3.org/2000/svg">
<path d="M10 20C4.477 20 0 15.523 0 10C0 4.477 4.477 0 10 0C15.523 0 20 4.477 20 10C20 15.523 15.523 20 10 20ZM10 18C12.1217 18 14.1566 17.1571 15.6569 15.6569C17.1571 14.1566 18 12.1217 18 10C18 7.87827 17.1571 5.84344 15.6569 4.34315C14.1566 2.84285 12.1217 2 10 2C7.87827 2 5.84344 2.84285 4.34315 4.34315C2.84285 5.84344 2 7.87827 2 10C2 12.1217 2.84285 14.1566 4.34315 15.6569C5.84344 17.1571 7.87827 18 10 18ZM10 8.586L12.1209 6.46436C12.5114 6.07371 13.1449 6.07393 13.5355 6.4645C13.9261 6.85507 13.9263 7.4886 13.5356 7.87911L11.414 10L13.5356 12.1209C13.9263 12.5114 13.9261 13.1449 13.5355 13.5355C13.1449 13.9261 12.5114 13.9263 12.1209 13.5356L10 11.414L7.87911 13.5356C7.4886 13.9263 6.85507 13.9261 6.4645 13.5355C6.07393 13.1449 6.07371 12.5114 6.46436 12.1209L8.586 10L6.46436 7.87911C6.07371 7.4886 6.07393 6.85507 6.4645 6.4645C6.85507 6.07393 7.4886 6.07371 7.87911 6.46436L10 8.586Z" fill="black"/>
</svg>
