<svg width="173" height="145" viewBox="0 0 173 145" fill="none" xmlns="http://www.w3.org/2000/svg">
<rect width="173" height="145" rx="10" fill="#E2E4E8"/>
<path d="M60.105 106.75L60.03 106.825L59.9513 106.75H53.22C52.2331 106.749 51.2869 106.356 50.5893 105.658C49.8918 104.96 49.5 104.013 49.5 103.026V42.9738C49.5069 41.9889 49.9009 41.0463 50.5969 40.3496C51.293 39.6528 52.2352 39.2579 53.22 39.25H120.78C122.835 39.25 124.5 40.9188 124.5 42.9738V103.026C124.493 104.011 124.099 104.954 123.403 105.65C122.707 106.347 121.765 106.742 120.78 106.75H60.105V106.75ZM117 84.25V46.75H57V99.25L94.5 61.75L117 84.25ZM117 94.855L94.5 72.355L67.605 99.25H117V94.855ZM72 69.25C70.0109 69.25 68.1032 68.4598 66.6967 67.0533C65.2902 65.6468 64.5 63.7391 64.5 61.75C64.5 59.7609 65.2902 57.8532 66.6967 56.4467C68.1032 55.0402 70.0109 54.25 72 54.25C73.9891 54.25 75.8968 55.0402 77.3033 56.4467C78.7098 57.8532 79.5 59.7609 79.5 61.75C79.5 63.7391 78.7098 65.6468 77.3033 67.0533C75.8968 68.4598 73.9891 69.25 72 69.25Z" fill="#979797"/>
</svg>
