<svg width="19" height="20" viewBox="0 0 19 20" fill="none" xmlns="http://www.w3.org/2000/svg">
<path d="M3 17C3 16.4477 3.44772 16 4 16C4.55228 16 5 16.4477 5 17V18H17V2H5V3C5 3.55228 4.55228 4 4 4C3.44772 4 3 3.55228 3 3V1C3 0.734784 3.10536 0.48043 3.29289 0.292893C3.48043 0.105357 3.73478 0 4 0H18C18.2652 0 18.5196 0.105357 18.7071 0.292893C18.8946 0.48043 19 0.734784 19 1V19C19 19.2652 18.8946 19.5196 18.7071 19.7071C18.5196 19.8946 18.2652 20 18 20H4C3.73478 20 3.48043 19.8946 3.29289 19.7071C3.10536 19.5196 3 19.2652 3 19V17ZM5 9H11C11.5523 9 12 9.44771 12 10C12 10.5523 11.5523 11 11 11H5V11.9194C5 12.7579 4.03007 13.2241 3.37531 12.7002L0.976086 10.7809C0.47568 10.3805 0.475679 9.61946 0.976086 9.21913L3.3753 7.29976C4.03007 6.77595 5 7.24212 5 8.08062V9Z" fill="#3772FF"/>
</svg>
