<svg width="142" height="42" viewBox="0 0 142 42" fill="none" xmlns="http://www.w3.org/2000/svg">
<path d="M14.328 20.576C14.328 21.552 14.104 22.448 13.656 23.264C13.208 24.064 12.52 24.712 11.592 25.208C10.664 25.704 9.512 25.952 8.136 25.952H5.592V32H1.488V15.152H8.136C9.48 15.152 10.616 15.384 11.544 15.848C12.472 16.312 13.168 16.952 13.632 17.768C14.096 18.584 14.328 19.52 14.328 20.576ZM7.824 22.688C8.608 22.688 9.192 22.504 9.576 22.136C9.96 21.768 10.152 21.248 10.152 20.576C10.152 19.904 9.96 19.384 9.576 19.016C9.192 18.648 8.608 18.464 7.824 18.464H5.592V22.688H7.824ZM20.5686 18.44V21.848H26.0646V25.016H20.5686V28.712H26.7846V32H16.4646V15.152H26.7846V18.44H20.5686ZM39.9369 29.024H33.6489L32.6409 32H28.3449L34.4409 15.152H39.1929L45.2889 32H40.9449L39.9369 29.024ZM38.8809 25.856L36.7929 19.688L34.7289 25.856H38.8809ZM56.9123 32L51.2483 24.56V32H47.1443V15.152H51.2483V22.544L56.8643 15.152H61.6883L55.1603 23.408L61.9283 32H56.9123ZM69.9746 32.168C68.7426 32.168 67.6386 31.968 66.6626 31.568C65.6866 31.168 64.9026 30.576 64.3106 29.792C63.7346 29.008 63.4306 28.064 63.3986 26.96H67.7666C67.8306 27.584 68.0466 28.064 68.4146 28.4C68.7826 28.72 69.2626 28.88 69.8546 28.88C70.4626 28.88 70.9426 28.744 71.2946 28.472C71.6466 28.184 71.8226 27.792 71.8226 27.296C71.8226 26.88 71.6786 26.536 71.3906 26.264C71.1186 25.992 70.7746 25.768 70.3586 25.592C69.9586 25.416 69.3826 25.216 68.6306 24.992C67.5426 24.656 66.6546 24.32 65.9666 23.984C65.2786 23.648 64.6866 23.152 64.1906 22.496C63.6946 21.84 63.4466 20.984 63.4466 19.928C63.4466 18.36 64.0146 17.136 65.1506 16.256C66.2866 15.36 67.7666 14.912 69.5906 14.912C71.4466 14.912 72.9426 15.36 74.0786 16.256C75.2146 17.136 75.8226 18.368 75.9026 19.952H71.4626C71.4306 19.408 71.2306 18.984 70.8626 18.68C70.4946 18.36 70.0226 18.2 69.4466 18.2C68.9506 18.2 68.5506 18.336 68.2466 18.608C67.9426 18.864 67.7906 19.24 67.7906 19.736C67.7906 20.28 68.0466 20.704 68.5586 21.008C69.0706 21.312 69.8706 21.64 70.9586 21.992C72.0466 22.36 72.9266 22.712 73.5986 23.048C74.2866 23.384 74.8786 23.872 75.3746 24.512C75.8706 25.152 76.1186 25.976 76.1186 26.984C76.1186 27.944 75.8706 28.816 75.3746 29.6C74.8946 30.384 74.1906 31.008 73.2626 31.472C72.3346 31.936 71.2386 32.168 69.9746 32.168ZM86.6123 32.168C85.0283 32.168 83.5723 31.8 82.2443 31.064C80.9323 30.328 79.8843 29.304 79.1003 27.992C78.3322 26.664 77.9482 25.176 77.9482 23.528C77.9482 21.88 78.3322 20.4 79.1003 19.088C79.8843 17.776 80.9323 16.752 82.2443 16.016C83.5723 15.28 85.0283 14.912 86.6123 14.912C88.1963 14.912 89.6443 15.28 90.9563 16.016C92.2843 16.752 93.3243 17.776 94.0763 19.088C94.8443 20.4 95.2283 21.88 95.2283 23.528C95.2283 25.176 94.8443 26.664 94.0763 27.992C93.3083 29.304 92.2683 30.328 90.9563 31.064C89.6443 31.8 88.1963 32.168 86.6123 32.168ZM86.6123 28.424C87.9563 28.424 89.0283 27.976 89.8282 27.08C90.6443 26.184 91.0523 25 91.0523 23.528C91.0523 22.04 90.6443 20.856 89.8282 19.976C89.0283 19.08 87.9563 18.632 86.6123 18.632C85.2523 18.632 84.1643 19.072 83.3483 19.952C82.5483 20.832 82.1483 22.024 82.1483 23.528C82.1483 25.016 82.5483 26.208 83.3483 27.104C84.1643 27.984 85.2523 28.424 86.6123 28.424ZM108.479 15.152V18.44H101.615V21.992H106.751V25.184H101.615V32H97.5114V15.152H108.479ZM122.756 15.152V18.44H118.292V32H114.188V18.44H109.724V15.152H122.756Z" fill="#1F6ED4"/>
<path d="M142.001 5C142.001 2.23858 139.759 0 136.994 0C134.229 0 131.987 2.23858 131.987 5C131.987 7.76142 134.229 10 136.994 10C139.759 10 142.001 7.76142 142.001 5Z" fill="url(#paint0_linear_1649_851)"/>
<defs>
<linearGradient id="paint0_linear_1649_851" x1="142.001" y1="0" x2="132.001" y2="10.0139" gradientUnits="userSpaceOnUse">
<stop stop-color="#FA2B56"/>
<stop offset="1" stop-color="#F91C3D"/>
</linearGradient>
</defs>
</svg>
